<?xml version="1.0" encoding="utf-8"?>
<!-- Generator: Adobe Illustrator 22.1.0, SVG Export Plug-In . SVG Version: 6.00 Build 0)  -->
<svg width="80" height="80" version="1.1" id="图层_1" xmlns="http://www.w3.org/2000/svg" xmlns:xlink="http://www.w3.org/1999/xlink" x="0px" y="0px"
	 viewBox="0 0 113.4 113.4" style="enable-background:new 0 0 113.4 113.4;" xml:space="preserve">
<style type="text/css">
	.st0{fill:none;stroke:#00AB55;stroke-width:33;stroke-linecap:round;stroke-linejoin:round;}
	.st1{fill:#00AB55;}
</style>
<g id="PCt032.tif_1_">
	<g>
		<path class="st1" d="M42.4,73.3c-0.3,0.2-0.6,0.3-0.9,0.5c-2.7,1.7-5.7,2.7-8.9,3.1c-4.7,0.6-9.3-0.1-13.5-2.5
			c-3.4-2-6.2-4.6-8.1-8.1C8.5,60.5,7.8,55,9.8,48.5c1.8-4.8,8.5-12.2,16.3-14.6c2.1-0.6,4.3-0.8,6.5-0.9c5.2-0.3,11.9,1,13.9,1.8
			c0,0,0.1,0,0.1,0.1c0,0,0.1,0.1,0,0.2c-0.5,0.9-3.5,5.5-4.8,7.5c-0.4,0.6-0.2,0.5-0.9,0.4c-1-0.2-2-0.2-3-0.2
			c-0.2,0-0.2,0.1-0.2,0.3c0.1,1.7,0.2,3.4,0.3,5c0,0.1,0,0.2,0,0.3c0.1,0.3,0.1,0.6,0.1,0.9c0,0.5-0.2,0.8-0.7,1.1
			c-0.7,0.3-1.4,0-1.6-0.7c-0.1-0.5-0.2-1-0.2-1.5c-0.1-1.5-0.1-3-0.2-4.6c0-0.1,0-0.2,0-0.3c-1.6,0.4-6.9,1.3-9.8,5.6
			c-0.5,0.9-1.7,3.8-1.7,6.6c0.1,4.4,3.4,10.2,9.4,9.9c0.7,0,1.5-0.1,2.2-0.2c0.1,0,0.2-0.1,0.3-0.2c0.2-0.7,0.3-1.5,0.5-2.3
			c-0.1,0-0.2,0-0.3,0c-0.7,0.1-1.4,0.2-2.1,0.3c-0.3,0-0.2-0.1-0.2-0.3c0-1.4,0-2.7,0.1-4.1c0-1.4,0-2.9,0-4.3
			c0-0.3,0.1-0.4,0.3-0.4c3.4-0.9,6.7-1.8,10.1-2.8c0.4-0.1,0.8-0.2,1.2-0.3c2.9-0.8,5.9,1.4,6,4.4c0.1,2.3,0.5,21.6,0.4,21.8
			c-0.1,0.4-0.5,0.7-0.9,0.7c-1.8,0-7.2,0-8.2-0.1c-0.5,0-0.7-0.4-0.7-0.8c0-0.7,0.1-1.4,0.2-2.2C42.2,74.2,42.3,73.8,42.4,73.3z"/>
		<path class="st1" d="M84.4,71.5c-0.1,0.1-0.2,0.1-0.3,0.2c-0.9,0.8-2,1.5-3.1,1.9c-0.2,0.1-0.3,0.2-0.3,0.4
			c0.1,0.7,0.1,1.4,0.1,2.2c0,0.7-0.7,1.2-1.4,1.2c-0.8,0-1.3-0.5-1.3-1.3c0-0.4,0-0.8,0-1.2c0-0.1,0-0.2,0-0.4
			c-0.3,0-0.5,0.1-0.7,0.1c-3.3,0.6-6.5,0.5-9.7-0.4c-3-0.8-5.3-2.6-7.3-4.9c-1.4-1.7-2.5-3.7-3.2-5.8c-1-2.7-1.7-5.5-2-8.4
			c-0.1-0.8-0.1-1.6-0.1-2.4c0-1.5-0.1-3,0-4.5c0.1-2.8,0.6-5.4,1.5-8c0.8-2.2,2-4.2,3.9-5.6c2.9-2.3,6.3-3.5,10-3.8
			c2.3-0.2,4.6-0.1,6.9,0.3C81,32,91.1,38.4,91.1,52.8c0,3-0.4,6-1.1,9c-0.5,2-1.4,3.8-2.4,5.5c-0.3,0.6-0.5,1.1-0.4,1.8
			c0.1,2.1,0.7,13.3,0.7,14.6c0,0.6-0.3,1.1-0.9,1.3c-0.6,0.2-1.2,0.1-1.6-0.4c-0.3-0.3-0.3-0.6-0.3-1c0.1-1.5-0.5-10.2-0.5-11.6
			C84.4,71.9,84.4,71.8,84.4,71.5z M77.5,45.2c0.1,1.3,0.1,2.5,0.2,3.8c0.1,1.2,0.2,2.4,0.3,3.6c0.1,0.8-0.6,1.5-1.5,1.5
			c-0.9,0-1.5-0.5-1.5-1.3c0-0.6,0.5-8.1-0.5-10.5c-0.1-0.3-0.8-0.8-1.5-0.8c-2.1-0.2-3.7,0.8-4.9,2.4c-1.1,1.5-1.6,3.3-1.7,5.2
			c-0.1,2.3,0.1,4.5,0.8,6.6c0.5,1.6,1.4,3.2,2.7,4.3c2.5,1.9,5.5,2.1,7.2,0.3c1-1.1,1.5-2.3,1.9-3.7c0.6-2.6,0.6-5.3-0.1-7.9
			C78.7,47.3,78.1,46.2,77.5,45.2z"/>
		<path class="st1" d="M106.7,55.9c0,0.8-0.3,1.5-0.7,2.1c-0.7,1.1-1.6,1.9-2.6,2.8c-2.2,1.8-4.4,3.6-6.6,5.3
			c-0.4,0.3-0.7,0.7-1.1,1c-0.4,0.4-1.2,1.2-1.3,1.3c-0.8,0.9-1.8,1-2.6,0.2c-0.7-0.8-0.6-1.3-0.3-2.4c0.3-0.8,0.4-1.6,0.7-2.3
			c1.4-3.6,3.7-6.5,6.9-8.7c1.3-0.9,2.7-1.5,4.3-1.7c0.4-0.1,0.9,0,1.3,0C105.9,53.8,106.6,54.7,106.7,55.9z"/>
		<path class="st1" d="M109,64.5c0.6,0.2,1,0.6,1.1,1.3c0.1,0.6-0.1,1.2-0.7,1.5c-0.7,0.4-4.6,1.6-5.7,2c-1.5,0.5-5.8,2.6-7,2.5
			c-0.9-0.1-1.4-1-0.9-1.8c0.4-0.6,0.8-1.1,1.3-1.5c2.2-1.9,4.8-3.1,7.6-3.7C105.7,64.5,107.9,64.2,109,64.5z"/>
	</g>
</g>
</svg>
