<svg width="80" height="80" viewBox="0 0 80 80" fill="none" xmlns="http://www.w3.org/2000/svg">
<g clip-path="url(#clip0_1097_152738)">
<path d="M27.7297 35.5359C26.0451 36.5945 24.1934 37.3578 22.2538 37.7933C19.3053 38.271 16.3568 38.0892 13.6273 36.5716C11.4075 35.3542 9.51619 33.7985 8.26096 31.7145C6.43709 28.1678 5.94005 24.7225 6.88358 20.5586C7.87765 17.3543 11.9213 12.5267 16.778 10.7935C18.1039 10.3893 19.4752 10.1535 20.8596 10.0918C24.1367 9.76629 28.4415 10.375 29.6251 10.8147H29.7894V10.9795C29.4861 11.4868 27.8223 14.5474 27.0684 15.9086C26.7567 16.2552 26.9209 16.2468 26.584 16.0946C25.8896 15.8715 25.1564 15.7966 24.4315 15.8747C24.2673 15.8747 24.2673 15.8747 24.2757 16.0481C24.322 17.0373 24.5453 18.1829 24.5958 19.172V19.3369V19.8315C24.5958 20.1612 24.5284 20.4402 24.1367 20.5163C23.0584 20.6685 22.932 19.4172 22.9151 19.0875C22.8646 18.0983 22.6498 17.1176 22.6034 16.1284V15.9635C21.6641 16.3313 18.2354 16.9992 16.559 19.7131C15.9342 21.0175 15.6116 22.4468 15.6154 23.8939C15.9187 26.6882 18.0711 30.2349 21.841 29.8629C22.3409 29.8641 22.8376 29.7827 23.3111 29.6219C23.3329 29.6214 23.3543 29.6165 23.3741 29.6074C23.3939 29.5983 23.4116 29.5852 23.4262 29.569C23.4408 29.5527 23.4519 29.5337 23.4589 29.513C23.4659 29.4923 23.4687 29.4704 23.4669 29.4486C23.6059 28.9498 23.5807 28.4552 23.7239 27.9522H23.5596C23.0668 27.9775 22.7424 28.1593 22.2496 28.1847C22.2279 28.1864 22.2061 28.1837 22.1855 28.1766C22.1648 28.1696 22.1459 28.1584 22.1297 28.1438C22.1135 28.1291 22.1005 28.1113 22.0914 28.0915C22.0824 28.0716 22.0774 28.0501 22.0769 28.0282L21.9463 25.3904L21.8326 22.7737C21.8326 22.6088 21.8326 22.6088 21.9843 22.4355C24.0903 21.6704 26.1964 21.0659 28.3025 20.3219C28.6311 20.3219 28.7869 20.1316 29.1155 20.1147C29.5462 19.9716 30.0038 19.9287 30.4535 19.9894C30.9033 20.05 31.3333 20.2125 31.7112 20.4647C32.089 20.7168 32.4048 21.0519 32.6345 21.4447C32.8642 21.8374 33.0018 22.2774 33.037 22.7314C33.1086 24.2152 34.0437 36.3983 34.0522 36.5632C34.0404 36.6892 33.9844 36.8068 33.8941 36.8951C33.8038 36.9834 33.6851 37.0366 33.5593 37.0451L28.3025 37.3072C28.2357 37.3238 28.1658 37.3236 28.099 37.3068C28.0321 37.2899 27.9705 37.2569 27.9193 37.2106C27.8682 37.1643 27.8292 37.1061 27.8056 37.0411C27.7821 36.9762 27.7748 36.9064 27.7844 36.838C27.7372 36.4833 27.7867 36.1225 27.9276 35.7938C28.0456 35.5106 27.8771 35.3542 27.7297 35.5359Z" fill="#00AB55"/>
<path d="M54.5982 32.8727C54.0457 33.4122 53.397 33.8424 52.6859 34.1409C52.5006 34.2128 52.5301 34.3143 52.5343 34.4791L52.6017 35.798C52.5886 36.0384 52.4828 36.2642 52.3066 36.4275C52.1305 36.5909 51.8979 36.6789 51.6581 36.6731C51.5503 36.6819 51.4417 36.6681 51.3395 36.6325C51.2372 36.5969 51.1435 36.5403 51.0642 36.4663C50.985 36.3923 50.922 36.3026 50.8792 36.2028C50.8364 36.1031 50.8148 35.9954 50.8157 35.8868L50.7736 35.0414V34.7116C50.627 34.8081 50.462 34.8728 50.2892 34.9019C48.1831 35.3246 46.1991 35.4387 44.1941 34.8765C42.3618 34.4538 40.8244 33.3927 39.4386 31.9723C38.5681 30.8969 37.8443 29.7098 37.2862 28.4425C36.5111 26.8319 35.6266 22.2495 35.6013 21.7549L35.4623 18.9522C35.3695 17.2016 35.6185 15.4497 36.1952 13.7949C36.5895 12.3544 37.3808 11.0547 38.4782 10.0453C40.2219 8.46341 42.4241 7.4828 44.7628 7.24682C46.1757 6.98053 47.6241 6.9648 49.0424 7.20032C51.3675 7.57655 57.9722 11.2163 58.4313 20.4487C58.5494 22.3915 58.4234 24.3415 58.0564 26.2528C57.8259 27.4991 57.3827 28.696 56.7464 29.791C56.5584 30.1503 56.4656 30.5521 56.4769 30.9578C56.54 32.2809 57.3867 39.3448 57.4246 40.1691C57.4316 40.3588 57.3747 40.5454 57.2632 40.6988C57.1516 40.8522 56.9918 40.9634 56.8096 41.0145C56.6806 41.0576 56.5437 41.0712 56.4088 41.0541C56.2739 41.0371 56.1445 40.99 56.0301 40.9162C55.9158 40.8424 55.8194 40.7438 55.748 40.6277C55.6766 40.5115 55.632 40.3808 55.6176 40.2452C55.5712 39.256 54.9731 33.8323 54.9226 32.8432C54.7962 32.7502 54.5982 32.8727 54.5982 32.8727ZM49.4931 16.2679C49.5352 17.0922 50.0196 20.2077 50.0575 21.0321C50.0698 21.1632 50.0547 21.2954 50.0134 21.4204C49.9721 21.5453 49.9054 21.6604 49.8175 21.7581C49.7296 21.8559 49.6224 21.9342 49.5028 21.9883C49.3831 22.0423 49.2536 22.0708 49.1224 22.072C48.8839 22.1023 48.643 22.038 48.451 21.8927C48.259 21.7474 48.1311 21.5327 48.0946 21.2942C48.0946 20.9644 48.1704 16.1664 47.4333 14.5305C47.4333 14.3656 46.9152 14.0612 46.4224 14.0866C45.0998 13.9851 44.1478 14.6953 43.3728 15.7268C42.7252 16.7237 42.3826 17.889 42.3871 19.0791C42.4599 20.523 42.6959 21.9539 43.0906 23.3444C43.4308 24.3411 44.0457 25.2206 44.8639 25.8808C46.5488 26.9545 48.3811 27.0306 49.4762 25.8174C50.0485 25.1497 50.408 24.325 50.5082 23.4501C50.7567 21.7845 50.9294 20.1655 50.5082 18.5337C50.1839 17.4727 50.0196 16.902 49.4931 16.2679Z" fill="#00AB55"/>
<path d="M68.3942 22.1015C68.4826 22.985 67.0463 24.8112 66.4145 25.3396C65.1508 26.5613 63.7355 27.7873 62.4803 29.0089L61.8485 29.698L61.0692 30.5646C60.6017 31.0845 59.953 31.2832 59.4349 30.814C58.9168 30.3448 59.0642 30.0024 59.1948 29.3344L59.616 27.8295C60.4879 25.4707 61.7221 23.6022 63.7818 22.1649C64.5577 21.6221 65.4344 21.2411 66.3597 21.0447C67.3243 20.8502 68.3141 21.2772 68.3942 22.1015Z" fill="#00AB55"/>
<path d="M69.7919 27.4407C70.0537 27.4403 70.3093 27.5199 70.5249 27.6689C70.6218 27.7341 70.7013 27.8221 70.7564 27.9253C70.8115 28.0285 70.8405 28.1437 70.8408 28.2608C70.8623 28.4094 70.8487 28.5611 70.8012 28.7035C70.7536 28.846 70.6734 28.9752 70.567 29.0809C70.436 29.233 70.2754 29.3567 70.0952 29.4444C69.278 29.8376 67.3994 30.459 66.8476 30.7718C65.8788 31.1522 63.3136 32.6022 62.4922 32.6445C61.8351 32.6741 61.6498 32.0231 61.9446 31.5116C62.1293 31.1627 62.365 30.8435 62.6439 30.5646C62.6916 30.5097 62.7437 30.4588 62.7997 30.4125C64.1434 29.2796 65.6303 28.6243 67.3657 27.9353C68.1392 27.6285 68.9605 27.4611 69.7919 27.4407V27.4407Z" fill="#00AB55"/>
<path d="M4.20935 61.6226C4.48573 61.6318 4.76084 61.581 5.01586 61.4737C5.27088 61.3664 5.4998 61.205 5.68697 61.0007C5.87414 60.7964 6.01514 60.554 6.10035 60.29C6.18555 60.0259 6.21294 59.7466 6.18065 59.4709C6.10699 59.0829 6.01278 58.6991 5.89843 58.3211C5.74807 57.8086 5.66593 57.2784 5.65413 56.7443C5.69362 56.1394 5.89585 55.5565 6.23928 55.0577C6.58271 54.559 7.05448 54.163 7.60437 53.912C7.76291 53.8439 7.89225 53.7216 7.96937 53.5668C8.0465 53.412 8.06642 53.2347 8.02558 53.0666C8.00258 52.9024 7.92376 52.7513 7.80247 52.6389C7.68119 52.5264 7.52489 52.4594 7.36006 52.4494C7.11 52.4135 6.85614 52.4135 6.60608 52.4494C3.72074 52.9862 1.37034 56.0679 1.63571 59.0271C1.7705 60.532 2.8783 61.6311 4.20935 61.6226Z" fill="#4BE517"/>
<path d="M34.8034 46.4847C34.6813 45.5716 34.6055 44.7515 34.4538 43.9483C34.3838 43.6496 34.4165 43.3359 34.5464 43.0581C34.6764 42.7803 34.8961 42.5548 35.1699 42.4181C35.8496 42.0075 36.6259 41.7857 37.4192 41.7755C39.0704 41.7206 40.7216 41.6276 42.3685 41.6825C45.0853 41.8027 47.7753 42.2744 50.3717 43.086C51.4269 43.4163 52.4122 43.9394 53.2781 44.6289C55.2283 46.1423 55.8559 48.1714 55.1904 50.6951C54.5989 52.6767 53.6619 54.5374 52.423 56.1906C52.0313 56.7613 51.6143 57.3108 51.2267 57.8435L58.775 58.7355C58.5812 57.89 58.3537 57.0445 58.181 56.1483C57.3976 51.7773 57.4903 47.4528 59.0024 43.2382C59.3826 42.2166 59.8757 41.241 60.4725 40.3298C60.9744 39.5367 61.6322 38.8548 62.4057 38.3257C63.1792 37.7965 64.0521 37.4313 64.9711 37.2523C66.9673 36.8065 69.045 36.891 70.9987 37.4975C73.6482 38.3007 75.3204 40.1818 76.4746 42.5998C77.733 45.3362 78.4265 48.2998 78.5133 51.3123C78.6691 54.5546 78.3616 57.7463 77.178 60.7942C76.8374 61.6777 76.4143 62.527 75.9143 63.3305C75.3662 64.2165 74.6316 64.9715 73.7621 65.5425C72.8926 66.1135 71.9092 66.4869 70.8808 66.6363C68.9599 66.9904 66.9816 66.8611 65.1227 66.2601C63.5155 65.7337 62.1083 64.7243 61.0917 63.3686C60.9611 63.1953 60.8347 63.0219 60.6283 62.7514C59.887 64.5311 59.2636 66.036 58.5686 67.71C58.5496 67.7541 58.5218 67.7938 58.487 67.8267C58.4521 67.8595 58.4109 67.8849 58.3659 67.9011C58.3209 67.9174 58.273 67.9242 58.2253 67.9211C58.1776 67.9181 58.131 67.9052 58.0884 67.8833C56.7742 67.1858 55.5189 66.6152 54.2974 65.8838L54.1542 65.9684C54.1542 66.1586 54.1542 66.3488 54.1837 66.5433C54.2427 67.5874 54.3058 68.6569 54.3648 69.6799C54.3987 69.9146 54.339 70.1533 54.1986 70.344C54.0582 70.5347 53.8485 70.6622 53.615 70.6987C53.493 70.7199 53.3679 70.7137 53.2485 70.6808C53.1292 70.6479 53.0185 70.589 52.9244 70.5083C52.8303 70.4276 52.7551 70.327 52.7041 70.2138C52.6531 70.1006 52.6276 69.9775 52.6294 69.8533C52.562 68.4963 52.5199 67.1351 52.5283 65.7781C52.5283 65.3005 52.4104 65.0468 51.9386 64.9327C50.8308 64.679 47.3052 63.8167 44.8663 63.2713C44.959 63.8716 45.0306 64.3662 45.1064 64.865C45.2075 65.5118 45.3044 66.1544 45.4223 66.7969C45.4592 66.9013 45.4538 67.0159 45.4074 67.1163C45.3609 67.2167 45.277 67.2948 45.1738 67.3338C43.2615 68.4047 41.3562 69.4855 39.4579 70.5761C39.379 70.622 39.2915 70.6511 39.2009 70.6617C39.1103 70.6722 39.0185 70.664 38.9312 70.6374C38.8439 70.6108 38.7629 70.5666 38.6934 70.5073C38.6239 70.448 38.5672 70.3751 38.527 70.2929C38.276 69.7528 38.088 69.1854 37.9668 68.602C37.5456 66.5362 37.1847 64.4578 36.8843 62.3667C36.4167 59.1286 36.0418 55.8778 35.5911 52.6439C35.5911 52.5594 35.5658 52.479 35.5406 52.3438C35.469 52.403 35.4226 52.4241 35.4016 52.4621C34.423 54.238 33.1397 55.8265 31.6106 57.1544C31.2794 57.423 31.0291 57.7787 30.8878 58.1819C30.7464 58.585 30.7196 59.0196 30.8103 59.4372C31.0841 61.386 31.8381 66.4587 31.8507 66.742C31.8456 66.9631 31.77 67.1769 31.6351 67.3518C31.5002 67.5268 31.313 67.6538 31.1009 67.7143C30.8937 67.7723 30.6727 67.7544 30.4774 67.6638C30.2821 67.5731 30.1254 67.4157 30.0352 67.2197C29.8994 66.9557 29.8124 66.6693 29.7783 66.3742C29.5424 64.231 29.3276 62.0919 29.1044 59.9487C29.1044 59.8684 29.1044 59.7881 29.0622 59.6359C28.6916 59.9571 28.3588 60.2319 28.0429 60.5236C27.9748 60.6099 27.9403 60.7181 27.946 60.828C28.0176 61.7326 28.0808 62.6373 28.1819 63.5377C28.2296 63.789 28.178 64.049 28.0381 64.2628C27.8982 64.4766 27.6809 64.6274 27.4321 64.6833C27.3058 64.7036 27.1766 64.6959 27.0534 64.661C26.9303 64.626 26.8163 64.5646 26.7193 64.4809C26.6222 64.3972 26.5445 64.2933 26.4916 64.1764C26.4387 64.0595 26.4118 63.9324 26.4128 63.804C26.3791 63.5123 26.3791 63.2122 26.3664 62.9163C26.3538 62.6203 26.3412 62.3583 26.3243 61.9651C25.246 62.9585 24.1803 63.7829 22.6555 63.7702C22.9461 64.6156 23.1862 65.3681 23.46 66.1079C24.0167 67.8209 24.7746 69.4614 25.7178 70.9946C25.7812 71.0729 25.8277 71.1635 25.8544 71.2608C25.881 71.358 25.8872 71.4598 25.8726 71.5596C25.8579 71.6594 25.8227 71.755 25.7692 71.8404C25.7157 71.9258 25.6451 71.9992 25.5619 72.0557C25.2904 72.281 24.9808 72.4557 24.6479 72.5714C22.8253 73.1494 20.8563 73.0504 19.1004 72.2924C18.63 72.0902 18.2339 71.7459 17.9673 71.3075C16.8715 69.4866 16.0069 67.5354 15.3937 65.4991C13.4951 59.8626 12.0305 54.088 11.013 48.2264C10.9498 47.8628 10.9204 47.495 10.8825 47.1273C10.8445 46.7595 10.7434 46.6707 10.4065 46.6158C9.83461 46.5197 9.27123 46.3784 8.7216 46.193C8.40263 46.0788 8.10504 45.9116 7.84125 45.6984C7.17152 45.1827 7.25155 44.4303 7.99711 44.0456C8.49143 43.7859 9.02517 43.6103 9.57667 43.5256C10.8403 43.3438 12.1335 43.2804 13.4098 43.1832C15.221 43.0437 17.0322 42.9127 18.8477 42.8154C21.7583 42.6632 24.6773 42.5702 27.5585 43.1663C29.6646 43.589 31.7201 44.2273 33.5229 45.4702C33.9189 45.7788 34.3064 46.1043 34.8034 46.4847ZM65.0006 52.1324C65.0073 54.3131 65.2074 56.4889 65.5987 58.634C65.7169 59.5923 66.0527 60.5107 66.5801 61.3183C67.4563 62.5316 68.8547 62.5316 69.6256 61.2465C70.0327 60.6179 70.3185 59.9181 70.468 59.1835C70.7713 57.1291 71.4157 48.9492 69.8277 44.891C69.718 44.5196 69.4844 44.1973 69.1663 43.978C68.8481 43.7587 68.4645 43.6557 68.0797 43.6862C67.1656 43.7666 66.3737 44.109 65.9736 45.0305C65.7804 45.47 65.6253 45.9254 65.5102 46.3917C65.1141 48.2782 64.9431 50.2053 65.0006 52.1324V52.1324ZM21.1307 58.5621C21.2014 58.5238 21.269 58.4799 21.3329 58.4311C22.8745 56.9219 24.4457 55.4339 25.9663 53.8825C26.9172 52.9436 27.6382 51.7961 28.0724 50.5303C28.5947 48.9492 28.1945 47.8163 26.8087 46.9201C25.9484 46.3612 24.9439 46.0673 23.9192 46.0747C22.2343 46.0747 20.5494 46.1973 18.8435 46.2691C18.7649 46.274 18.6871 46.2882 18.6118 46.3114C19.1494 50.4517 19.9913 54.5464 21.1307 58.5621V58.5621ZM43.8765 56.1399L43.9944 56.1653C44.483 55.4593 44.9927 54.766 45.456 54.0516C46.4773 52.6016 47.1755 50.9479 47.5032 49.2029C47.7685 47.4485 47.1662 46.2818 45.5993 45.4786C44.5595 44.9726 43.4733 44.5691 42.3559 44.2738C42.8613 48.3405 43.3668 52.1282 43.8723 56.1399H43.8765Z" fill="#00AB55"/>
<path d="M4.20948 61.6227C2.87843 61.6311 1.77063 60.532 1.63584 59.0271C1.37047 56.068 3.70402 52.9863 6.602 52.4663C6.85206 52.4305 7.10592 52.4305 7.35598 52.4663C7.52081 52.4764 7.67711 52.5434 7.79839 52.6558C7.91968 52.7683 7.9985 52.9194 8.02151 53.0835C8.06234 53.2517 8.04242 53.4289 7.96529 53.5837C7.88817 53.7385 7.75883 53.8609 7.60029 53.929C7.0504 54.18 6.57863 54.5759 6.2352 55.0747C5.89177 55.5734 5.68954 56.1563 5.65005 56.7613C5.66185 57.2954 5.74399 57.8256 5.89435 58.3381C6.0087 58.716 6.10291 59.0998 6.17657 59.4879C6.2062 59.7618 6.17696 60.039 6.09082 60.3006C6.00468 60.5623 5.86365 60.8023 5.67723 61.0046C5.49081 61.207 5.26334 61.3668 5.01014 61.4734C4.75695 61.58 4.48393 61.6309 4.20948 61.6227Z" fill="#00AB55"/>
</g>
<defs>
<clipPath id="clip0_1097_152738">
<rect width="76.9271" height="65.9375" fill="white" transform="translate(1.61523 7.03125)"/>
</clipPath>
</defs>
</svg>
