<svg width="48" height="48" viewBox="0 0 48 48" fill="none" xmlns="http://www.w3.org/2000/svg">
<g clip-path="url(#clip0_1097_152726)">
<path d="M16.6378 21.3216C15.6271 21.9567 14.516 22.4147 13.3523 22.676C11.5832 22.9626 9.81406 22.8536 8.17637 21.943C6.84448 21.2125 5.70971 20.2791 4.95658 19.0287C3.86225 16.9007 3.56403 14.8335 4.13015 12.3352C4.72659 10.4126 7.15281 7.51606 10.0668 6.47614C10.8624 6.23358 11.6851 6.09213 12.5158 6.0551C14.482 5.8598 17.0649 6.22504 17.7751 6.48882H17.8737V6.58774C17.6917 6.89211 16.6934 8.72845 16.241 9.54516C16.054 9.75315 16.1526 9.74807 15.9504 9.65676C15.5338 9.5229 15.0939 9.47797 14.6589 9.52487C14.5604 9.52487 14.5604 9.52487 14.5654 9.62886C14.5932 10.2224 14.7272 10.9097 14.7575 11.5033V11.6022V11.8989C14.7575 12.0968 14.717 12.2642 14.482 12.3098C13.835 12.4011 13.7592 11.6504 13.7491 11.4525C13.7188 10.859 13.5899 10.2706 13.5621 9.67706V9.57814C12.9985 9.7988 10.9412 10.1996 9.93538 11.8279C9.56052 12.6105 9.36699 13.4681 9.36926 14.3364C9.55122 16.0129 10.8427 18.141 13.1046 17.9178C13.4045 17.9185 13.7025 17.8696 13.9867 17.7732C13.9997 17.7729 14.0126 17.7699 14.0245 17.7644C14.0363 17.759 14.047 17.7511 14.0557 17.7414C14.0645 17.7317 14.0712 17.7202 14.0754 17.7078C14.0796 17.6954 14.0812 17.6823 14.0802 17.6692C14.1636 17.3699 14.1484 17.0731 14.2343 16.7713H14.1358C13.8401 16.7865 13.6455 16.8956 13.3498 16.9108C13.3367 16.9119 13.3236 16.9102 13.3113 16.906C13.2989 16.9018 13.2875 16.8951 13.2778 16.8863C13.2681 16.8775 13.2603 16.8668 13.2549 16.8549C13.2494 16.843 13.2465 16.8301 13.2462 16.817L13.1678 15.2343L13.0996 13.6643C13.0996 13.5653 13.0996 13.5653 13.1905 13.4613C14.4542 13.0023 15.7179 12.6396 16.9815 12.1931C17.1786 12.1931 17.2722 12.079 17.4693 12.0689C17.7277 11.983 18.0023 11.9573 18.2721 11.9937C18.5419 12.03 18.8 12.1276 19.0267 12.2788C19.2534 12.4301 19.4429 12.6312 19.5807 12.8668C19.7185 13.1025 19.8011 13.3665 19.8222 13.6389C19.8652 14.5292 20.4262 21.839 20.4313 21.9379C20.4243 22.0135 20.3906 22.0841 20.3365 22.1371C20.2823 22.1901 20.2111 22.222 20.1356 22.2271L16.9815 22.3843C16.9414 22.3943 16.8995 22.3942 16.8594 22.3841C16.8193 22.374 16.7823 22.3542 16.7516 22.3264C16.7209 22.2986 16.6975 22.2637 16.6834 22.2247C16.6693 22.1857 16.6649 22.1439 16.6707 22.1028C16.6423 21.89 16.672 21.6735 16.7566 21.4763C16.8273 21.3064 16.7263 21.2125 16.6378 21.3216Z" fill="#00AB55"/>
<path d="M32.7585 19.7237C32.4271 20.0473 32.0378 20.3055 31.6111 20.4846C31.4999 20.5277 31.5176 20.5886 31.5202 20.6875L31.5606 21.4788C31.5528 21.623 31.4893 21.7585 31.3836 21.8565C31.2779 21.9545 31.1383 22.0074 30.9945 22.0039C30.9298 22.0092 30.8646 22.0009 30.8033 21.9795C30.7419 21.9581 30.6857 21.9242 30.6381 21.8798C30.5906 21.8354 30.5528 21.7816 30.5271 21.7217C30.5014 21.6619 30.4885 21.5973 30.489 21.5321L30.4637 21.0248V20.827C30.3758 20.8849 30.2768 20.9237 30.1731 20.9411C28.9095 21.1948 27.7191 21.2633 26.5161 20.9259C25.4167 20.6723 24.4942 20.0356 23.6628 19.1834C23.1405 18.5381 22.7062 17.8259 22.3713 17.0655C21.9063 16.0992 21.3755 13.3497 21.3604 13.053L21.277 11.3714C21.2213 10.321 21.3707 9.26984 21.7167 8.27698C21.9533 7.41264 22.4281 6.63284 23.0865 6.0272C24.1327 5.07807 25.454 4.4897 26.8573 4.34812C27.705 4.18834 28.5741 4.1789 29.425 4.32022C30.8201 4.54596 34.7829 6.72978 35.0584 12.2692C35.1292 13.4349 35.0537 14.6049 34.8335 15.7517C34.6951 16.4995 34.4292 17.2177 34.0475 17.8746C33.9347 18.0902 33.879 18.3313 33.8857 18.5747C33.9236 19.3686 34.4316 23.6069 34.4544 24.1015C34.4586 24.2153 34.4244 24.3273 34.3575 24.4193C34.2906 24.5113 34.1947 24.5781 34.0854 24.6087C34.008 24.6346 33.9258 24.6427 33.8449 24.6325C33.7639 24.6223 33.6863 24.594 33.6177 24.5497C33.5491 24.5054 33.4912 24.4463 33.4484 24.3766C33.4056 24.3069 33.3788 24.2285 33.3702 24.1471C33.3424 23.5536 32.9835 20.2994 32.9531 19.7059C32.8773 19.6501 32.7585 19.7237 32.7585 19.7237ZM29.6954 9.76076C29.7207 10.2554 30.0114 12.1247 30.0341 12.6193C30.0415 12.6979 30.0325 12.7773 30.0077 12.8522C29.9829 12.9272 29.9428 12.9962 29.8901 13.0549C29.8374 13.1135 29.7731 13.1606 29.7013 13.193C29.6295 13.2254 29.5518 13.2425 29.473 13.2432C29.3299 13.2614 29.1854 13.2228 29.0702 13.1357C28.955 13.0485 28.8783 12.9196 28.8564 12.7765C28.8564 12.5787 28.9019 9.69989 28.4596 8.71831C28.4596 8.61939 28.1487 8.43677 27.853 8.45199C27.0595 8.39111 26.4883 8.81723 26.0233 9.4361C25.6347 10.0342 25.4292 10.7334 25.4319 11.4475C25.4756 12.3138 25.6171 13.1724 25.8539 14.0067C26.0581 14.6047 26.427 15.1324 26.9179 15.5285C27.9289 16.1727 29.0282 16.2184 29.6853 15.4904C30.0287 15.0898 30.2444 14.595 30.3045 14.0701C30.4536 13.0707 30.5573 12.0993 30.3045 11.1203C30.1099 10.4836 30.0114 10.1412 29.6954 9.76076Z" fill="#00AB55"/>
<path d="M41.0357 13.261C41.0888 13.7911 40.227 14.8868 39.8479 15.2039C39.0897 15.9369 38.2405 16.6724 37.4874 17.4055L37.1083 17.8189L36.6407 18.3389C36.3602 18.6508 35.971 18.77 35.6602 18.4885C35.3493 18.207 35.4377 18.0015 35.5161 17.6008L35.7688 16.6978C36.292 15.2825 37.0325 14.1614 38.2683 13.2991C38.7339 12.9734 39.2598 12.7448 39.815 12.6269C40.3938 12.5102 40.9877 12.7664 41.0357 13.261Z" fill="#00AB55"/>
<path d="M41.8759 16.4645C42.033 16.4643 42.1864 16.512 42.3157 16.6014C42.3739 16.6405 42.4216 16.6933 42.4546 16.7553C42.4877 16.8172 42.5051 16.8863 42.5052 16.9565C42.5181 17.0457 42.51 17.1367 42.4815 17.2222C42.4529 17.3077 42.4048 17.3852 42.341 17.4486C42.2624 17.5398 42.166 17.6141 42.0579 17.6667C41.5676 17.9026 40.4404 18.2755 40.1093 18.4631C39.5281 18.6914 37.9889 19.5614 37.4961 19.5868C37.1018 19.6045 36.9906 19.2139 37.1676 18.907C37.2784 18.6977 37.4198 18.5062 37.5871 18.3389C37.6157 18.3059 37.647 18.2754 37.6806 18.2476C38.4868 17.5678 39.379 17.1747 40.4202 16.7612C40.8843 16.5772 41.3771 16.4767 41.8759 16.4645V16.4645Z" fill="#00AB55"/>
<path d="M2.52522 36.9736C2.69105 36.9791 2.85611 36.9486 3.00912 36.8842C3.16214 36.8198 3.29949 36.723 3.41179 36.6004C3.52409 36.4779 3.60869 36.3324 3.65982 36.174C3.71094 36.0156 3.72737 35.8479 3.708 35.6826C3.6638 35.4497 3.60728 35.2194 3.53867 34.9927C3.44845 34.6852 3.39916 34.3671 3.39208 34.0466C3.41578 33.6836 3.53712 33.3339 3.74318 33.0346C3.94923 32.7354 4.2323 32.4978 4.56223 32.3472C4.65735 32.3063 4.73496 32.2329 4.78123 32.1401C4.82751 32.0472 4.83946 31.9408 4.81496 31.8399C4.80115 31.7415 4.75386 31.6508 4.68109 31.5833C4.60832 31.5158 4.51454 31.4757 4.41564 31.4696C4.26561 31.4481 4.11329 31.4481 3.96326 31.4696C2.23205 31.7917 0.821812 33.6408 0.981033 35.4162C1.06191 36.3192 1.72659 36.9786 2.52522 36.9736Z" fill="#4BE517"/>
<path d="M20.8809 27.8909C20.8076 27.343 20.7621 26.8509 20.6711 26.369C20.6291 26.1898 20.6487 26.0016 20.7267 25.8349C20.8047 25.6682 20.9365 25.5329 21.1008 25.4509C21.5086 25.2045 21.9744 25.0715 22.4503 25.0653C23.4411 25.0324 24.4318 24.9766 25.4199 25.0095C27.05 25.0816 28.664 25.3647 30.2218 25.8516C30.8549 26.0498 31.4461 26.3637 31.9657 26.7774C33.1358 27.6854 33.5124 28.9029 33.1131 30.4171C32.7582 31.6061 32.196 32.7224 31.4526 33.7144C31.2176 34.0568 30.9674 34.3865 30.7349 34.7061L35.2638 35.2413C35.1476 34.734 35.0111 34.2267 34.9075 33.689C34.4374 31.0664 34.493 28.4717 35.4003 25.9429C35.6284 25.33 35.9242 24.7446 36.2823 24.1979C36.5835 23.7221 36.9781 23.3129 37.4422 22.9954C37.9063 22.6779 38.4301 22.4588 38.9815 22.3514C40.1792 22.0839 41.4258 22.1346 42.5981 22.4985C44.1877 22.9804 45.1911 24.1091 45.8836 25.5599C46.6386 27.2017 47.0547 28.9799 47.1068 30.7874C47.2003 32.7328 47.0158 34.6478 46.3056 36.4765C46.1013 37.0067 45.8474 37.5162 45.5474 37.9983C45.2185 38.5299 44.7778 38.9829 44.2561 39.3255C43.7344 39.6682 43.1443 39.8921 42.5273 39.9818C41.3748 40.1943 40.1878 40.1167 39.0725 39.7561C38.1081 39.4402 37.2638 38.8346 36.6538 38.0212C36.5755 37.9172 36.4997 37.8132 36.3758 37.6509C35.931 38.7187 35.557 39.6216 35.14 40.626C35.1286 40.6525 35.1119 40.6763 35.091 40.696C35.0701 40.7157 35.0454 40.731 35.0184 40.7407C34.9914 40.7505 34.9627 40.7545 34.934 40.7527C34.9054 40.7509 34.8774 40.7431 34.8519 40.73C34.0633 40.3115 33.3102 39.9691 32.5773 39.5303L32.4914 39.581C32.4914 39.6952 32.4914 39.8093 32.509 39.926C32.5444 40.5525 32.5823 41.1942 32.6177 41.808C32.638 41.9488 32.6022 42.092 32.518 42.2064C32.4337 42.3209 32.3079 42.3974 32.1679 42.4193C32.0947 42.4319 32.0196 42.4283 31.948 42.4085C31.8763 42.3888 31.8099 42.3534 31.7535 42.305C31.697 42.2566 31.6519 42.1962 31.6213 42.1283C31.5907 42.0604 31.5754 41.9865 31.5765 41.912C31.536 41.0978 31.5108 40.2811 31.5158 39.4669C31.5158 39.1803 31.445 39.0281 31.162 38.9596C30.4973 38.8075 28.3819 38.29 26.9186 37.9628C26.9742 38.323 27.0172 38.6198 27.0627 38.9191C27.1233 39.3071 27.1815 39.6927 27.2522 40.0782C27.2744 40.1408 27.2711 40.2096 27.2432 40.2698C27.2154 40.33 27.1651 40.3769 27.1031 40.4003C25.9557 41.0428 24.8125 41.6913 23.6736 42.3457C23.6262 42.3732 23.5737 42.3907 23.5194 42.397C23.465 42.4034 23.4099 42.3984 23.3575 42.3825C23.3052 42.3665 23.2566 42.34 23.2149 42.3044C23.1732 42.2688 23.1392 42.2251 23.115 42.1758C22.9644 41.8517 22.8517 41.5113 22.7789 41.1612C22.5262 39.9218 22.3097 38.6747 22.1294 37.42C21.8489 35.4772 21.6239 33.5267 21.3535 31.5864C21.3535 31.5356 21.3383 31.4875 21.3232 31.4063C21.2802 31.4418 21.2524 31.4545 21.2398 31.4773C20.6526 32.5428 19.8826 33.4959 18.9652 34.2927C18.7664 34.4538 18.6163 34.6673 18.5315 34.9091C18.4467 35.151 18.4306 35.4118 18.485 35.6623C18.6493 36.8316 19.1017 39.8753 19.1092 40.0452C19.1062 40.1779 19.0609 40.3062 18.9799 40.4111C18.8989 40.5161 18.7866 40.5923 18.6594 40.6286C18.5351 40.6634 18.4024 40.6527 18.2853 40.5983C18.1681 40.5439 18.0741 40.4494 18.02 40.3318C17.9385 40.1735 17.8863 40.0016 17.8658 39.8245C17.7243 38.5386 17.5954 37.2552 17.4614 35.9692C17.4614 35.921 17.4614 35.8729 17.4362 35.7815C17.2138 35.9743 17.0141 36.1392 16.8246 36.3142C16.7837 36.3659 16.763 36.4309 16.7664 36.4968C16.8094 37.0396 16.8473 37.5824 16.908 38.1226C16.9366 38.2734 16.9057 38.4294 16.8217 38.5577C16.7377 38.686 16.6073 38.7765 16.4581 38.81C16.3823 38.8222 16.3048 38.8176 16.2309 38.7966C16.157 38.7756 16.0886 38.7388 16.0304 38.6886C15.9722 38.6383 15.9256 38.576 15.8938 38.5058C15.862 38.4357 15.8459 38.3595 15.8465 38.2824C15.8263 38.1074 15.8263 37.9273 15.8187 37.7498C15.8111 37.5722 15.8035 37.415 15.7934 37.1791C15.1464 37.7751 14.507 38.2697 13.5921 38.2621C13.7665 38.7694 13.9106 39.2209 14.0748 39.6647C14.4088 40.6926 14.8636 41.6769 15.4295 42.5968C15.4675 42.6438 15.4955 42.6981 15.5115 42.7565C15.5274 42.8148 15.5312 42.8759 15.5224 42.9358C15.5136 42.9957 15.4925 43.053 15.4604 43.1043C15.4283 43.1555 15.3859 43.1995 15.336 43.2334C15.1731 43.3686 14.9873 43.4734 14.7875 43.5429C13.694 43.8897 12.5126 43.8303 11.4591 43.3755C11.1768 43.2541 10.9392 43.0476 10.7792 42.7845C10.1217 41.692 9.60297 40.5212 9.23505 39.2995C8.09586 35.9176 7.21714 32.4528 6.60665 28.9358C6.56874 28.7177 6.55104 28.4971 6.5283 28.2764C6.50555 28.0557 6.4449 28.0025 6.24271 27.9695C5.8996 27.9118 5.56157 27.827 5.23179 27.7158C5.04041 27.6473 4.86185 27.547 4.70358 27.4191C4.30174 27.1097 4.34976 26.6582 4.79709 26.4274C5.09368 26.2716 5.41393 26.1662 5.74483 26.1154C6.50303 26.0063 7.27891 25.9683 8.04468 25.9099C9.13143 25.8262 10.2182 25.7476 11.3074 25.6893C13.0538 25.598 14.8052 25.5422 16.5339 25.8998C17.7976 26.1534 19.0309 26.5364 20.1126 27.2821C20.3502 27.4673 20.5827 27.6626 20.8809 27.8909ZM38.9992 31.2795C39.0032 32.5879 39.1233 33.8934 39.3581 35.1804C39.429 35.7554 39.6304 36.3064 39.9469 36.791C40.4726 37.519 41.3117 37.519 41.7742 36.7479C42.0185 36.3708 42.1899 35.9509 42.2796 35.5102C42.4616 34.2775 42.8483 29.3696 41.8955 26.9346C41.8296 26.7118 41.6895 26.5184 41.4986 26.3868C41.3077 26.2553 41.0775 26.1935 40.8466 26.2118C40.2982 26.26 39.8231 26.4654 39.583 27.0183C39.4671 27.282 39.374 27.5553 39.305 27.8351C39.0673 28.967 38.9647 30.1232 38.9992 31.2795V31.2795ZM12.6772 35.1373C12.7196 35.1143 12.7602 35.088 12.7986 35.0587C13.7236 34.1532 14.6662 33.2604 15.5786 32.3295C16.1492 31.7662 16.5817 31.0777 16.8423 30.3182C17.1556 29.3696 16.9155 28.6898 16.0841 28.1521C15.5679 27.8168 14.9652 27.6404 14.3503 27.6448C13.3394 27.6448 12.3285 27.7184 11.3049 27.7615C11.2577 27.7644 11.2111 27.7729 11.1659 27.7869C11.4885 30.271 11.9936 32.7279 12.6772 35.1373V35.1373ZM26.3247 33.684L26.3955 33.6992C26.6886 33.2756 26.9945 32.8596 27.2725 32.431C27.8852 31.561 28.3041 30.5687 28.5007 29.5218C28.6599 28.4692 28.2985 27.7691 27.3584 27.2872C26.7345 26.9836 26.0828 26.7415 25.4124 26.5643C25.7156 29.0043 26.0189 31.2769 26.3222 33.684H26.3247Z" fill="#00AB55"/>
<path d="M2.5253 36.9735C1.72667 36.9786 1.06198 36.3192 0.981111 35.4162C0.82189 33.6407 2.22202 31.7917 3.96081 31.4798C4.11084 31.4582 4.26316 31.4582 4.4132 31.4798C4.5121 31.4858 4.60587 31.526 4.67864 31.5935C4.75142 31.6609 4.79871 31.7516 4.81251 31.8501C4.83701 31.951 4.82506 32.0573 4.77878 32.1502C4.73251 32.2431 4.65491 32.3165 4.55978 32.3573C4.22985 32.5079 3.94679 32.7455 3.74073 33.0448C3.53467 33.344 3.41334 33.6937 3.38964 34.0567C3.39672 34.3772 3.44601 34.6953 3.53622 35.0028C3.60483 35.2296 3.66136 35.4599 3.70555 35.6927C3.72333 35.857 3.70578 36.0233 3.6541 36.1803C3.60242 36.3373 3.5178 36.4813 3.40595 36.6027C3.29409 36.7241 3.15761 36.82 3.0057 36.884C2.85378 36.948 2.68997 36.9785 2.5253 36.9735Z" fill="#00AB55"/>
</g>
<defs>
<clipPath id="clip0_1097_152726">
<rect width="46.1562" height="39.5625" fill="white" transform="translate(0.96875 4.21875)"/>
</clipPath>
</defs>
</svg>
